name analog
datacolumns 19
datarows 63
range 0.3955 0.4265
endheader
time	ground_force_vx	ground_force_vy	ground_force_vz	ground_force_px	ground_force_py	ground_force_pz	l_ground_force_vx	l_ground_force_vy	l_ground_force_vz	l_ground_force_px	l_ground_force_py	l_ground_force_pz	ground_torque_x	ground_torque_y	ground_torque_z	l_ground_torque_x	l_ground_torque_y	l_ground_torque_z
0.3955	-0.0	-0.0	-0.0	-1.499794363975525	-4.309271335601807	-555.28076171875	-0.0	-0.0	-0.0	-0.0	-0.0	-0.0	-0.0	-0.0	-0.0	-0.0	-0.0	-0.0
0.396	-0.0	-0.0	-0.0	-1.3073214292526243	-5.056598663330078	-556.489501953125	-0.0	-0.0	-0.0	-0.0	-0.0	-0.0	-0.0	-0.0	-0.0	-0.0	-0.0	-0.0
0.3965	-0.0	-0.0	-0.0	-0.9609238505363464	-4.800304889678955	-558.49853515625	-0.0	-0.0	-0.0	-0.0	-0.0	-0.0	-0.0	-0.0	-0.0	-0.0	-0.0	-0.0
0.397	-0.0	-0.0	-0.0	-0.991457998752594	-4.565917015075684	-559.4771728515625	-0.0	-0.0	-0.0	-0.0	-0.0	-0.0	-0.0	-0.0	-0.0	-0.0	-0.0	-0.0
0.3975	-0.0	-0.0	-0.0	-0.643255352973938	-5.000015258789063	-560.0689697265625	-0.0	-0.0	-0.0	-0.0	-0.0	-0.0	-0.0	-0.0	-0.0	-0.0	-0.0	-0.0
0.398	-0.0	-0.0	-0.0	-0.2076811641454696	-4.723911285400391	-563.322021484375	-0.0	-0.0	-0.0	-0.0	-0.0	-0.0	-0.0	-0.0	-0.0	-0.0	-0.0	-0.0
0.3985	-0.0	-0.0	-0.0	-0.2972110509872436	-4.902172088623047	-564.9698486328125	-0.0	-0.0	-0.0	-0.0	-0.0	-0.0	-0.0	-0.0	-0.0	-0.0	-0.0	-0.0
0.399	-0.0	-0.0	-0.0	-0.4465622901916504	-5.278387069702148	-566.6956787109375	-0.0	-0.0	-0.0	-0.0	-0.0	-0.0	-0.0	-0.0	-0.0	-0.0	-0.0	-0.0
0.3995	-0.0	-0.0	-0.0	-0.0990130677819252	-5.367411613464356	-569.3648681640625	-0.0	-0.0	-0.0	-0.0	-0.0	-0.0	-0.0	-0.0	-0.0	-0.0	-0.0	-0.0
0.4	-0.0	-0.0	-0.0	-0.4460525512695312	-5.347824096679688	-570.1866455078125	-0.0	-0.0	-0.0	-0.0	-0.0	-0.0	-0.0	-0.0	-0.0	-0.0	-0.0	-0.0
0.4005	-0.0	-0.0	-0.0	-0.4966560900211334	-5.595929145812988	-573.9173583984375	-0.0	-0.0	-0.0	-0.0	-0.0	-0.0	-0.0	-0.0	-0.0	-0.0	-0.0	-0.0
0.401	-0.0	-0.0	-0.0	-0.3760389387607574	-5.634395122528076	-576.3896484375	-0.0	-0.0	-0.0	-0.0	-0.0	-0.0	-0.0	-0.0	-0.0	-0.0	-0.0	-0.0
0.4015	-0.0	-0.0	-0.0	-0.1272792816162109	-5.647294044494629	-577.4868774414062	-0.0	-0.0	-0.0	-0.0	-0.0	-0.0	-0.0	-0.0	-0.0	-0.0	-0.0	-0.0
0.402	-0.0	-0.0	-0.0	0.0608672946691513	-5.17900276184082	-579.7552490234375	-0.0	-0.0	-0.0	-0.0	-0.0	-0.0	-0.0	-0.0	-0.0	-0.0	-0.0	-0.0
0.4025	-0.0	-0.0	-0.0	0.1314479708671569	-4.906903266906738	-583.6576538085938	-0.0	-0.0	-0.0	-0.0	-0.0	-0.0	-0.0	-0.0	-0.0	-0.0	-0.0	-0.0
0.403	-0.0	-0.0	-0.0	-0.0612752623856067	-4.554954051971436	-586.2786865234375	-0.0	-0.0	-0.0	-0.0	-0.0	-0.0	-0.0	-0.0	-0.0	-0.0	-0.0	-0.0
0.4035	-0.0	-0.0	-0.0	-0.2920348644256592	-4.527150630950928	-589.0308227539062	-0.0	-0.0	-0.0	-0.0	-0.0	-0.0	-0.0	-0.0	-0.0	-0.0	-0.0	-0.0
0.404	-0.0	-0.0	-0.0	-0.6612350940704346	-4.035723686218262	-589.810546875	-0.0	-0.0	-0.0	-0.0	-0.0	-0.0	-0.0	-0.0	-0.0	-0.0	-0.0	-0.0
0.4045	-0.0	-0.0	-0.0	-0.8120021224021912	-3.565216064453125	-591.6845703125	-0.0	-0.0	-0.0	-0.0	-0.0	-0.0	-0.0	-0.0	-0.0	-0.0	-0.0	-0.0
0.405	-0.0	-0.0	-0.0	-0.5081008672714233	-3.288779020309448	-593.521484375	-0.0	-0.0	-0.0	-0.0	-0.0	-0.0	-0.0	-0.0	-0.0	-0.0	-0.0	-0.0
0.4055	-0.0	-0.0	-0.0	-0.285060316324234	-3.3510966300964355	-597.085205078125	-0.0	-0.0	-0.0	-0.0	-0.0	-0.0	-0.0	-0.0	-0.0	-0.0	-0.0	-0.0
0.406	-0.0	-0.0	-0.0	0.0089033944532275	-2.566990852355957	-599.3463134765625	-0.0	-0.0	-0.0	-0.0	-0.0	-0.0	-0.0	-0.0	-0.0	-0.0	-0.0	-0.0
0.40650000000000003	-0.0	-0.0	-0.0	0.3656919300556183	-2.397678852081299	-601.0772705078125	-0.0	-0.0	-0.0	-0.0	-0.0	-0.0	-0.0	-0.0	-0.0	-0.0	-0.0	-0.0
0.40700000000000003	-0.0	-0.0	-0.0	0.1330456733703613	-1.649681806564331	-603.376220703125	-0.0	-0.0	-0.0	-0.0	-0.0	-0.0	-0.0	-0.0	-0.0	-0.0	-0.0	-0.0
0.40750000000000003	-0.0	-0.0	-0.0	0.0979096442461013	-1.363029956817627	-603.6533813476562	-0.0	-0.0	-0.0	-0.0	-0.0	-0.0	-0.0	-0.0	-0.0	-0.0	-0.0	-0.0
0.40800000000000003	-0.0	-0.0	-0.0	0.2589852511882782	-0.7848966121673584	-604.3936157226562	-0.0	-0.0	-0.0	-0.0	-0.0	-0.0	-0.0	-0.0	-0.0	-0.0	-0.0	-0.0
0.40850000000000003	-0.0	-0.0	-0.0	-0.1698575913906097	-0.1953722685575485	-606.5455322265625	-0.0	-0.0	-0.0	-0.0	-0.0	-0.0	-0.0	-0.0	-0.0	-0.0	-0.0	-0.0
0.40900000000000003	-0.0	-0.0	-0.0	-0.0721907317638397	0.4667644202709198	-607.1837158203125	-0.0	-0.0	-0.0	-0.0	-0.0	-0.0	-0.0	-0.0	-0.0	-0.0	-0.0	-0.0
0.40950000000000003	-0.0	-0.0	-0.0	0.4376240670681	-0.1361562311649322	-607.7892456054688	-0.0	-0.0	-0.0	-0.0	-0.0	-0.0	-0.0	-0.0	-0.0	-0.0	-0.0	-0.0
0.41000000000000003	-0.0	-0.0	-0.0	0.4711310565471649	0.5821528434753418	-610.294921875	-0.0	-0.0	-0.0	-0.0	-0.0	-0.0	-0.0	-0.0	-0.0	-0.0	-0.0	-0.0
0.41050000000000003	-0.0	-0.0	-0.0	0.7302957773208618	0.5181856155395508	-612.602783203125	-0.0	-0.0	-0.0	-0.0	-0.0	-0.0	-0.0	-0.0	-0.0	-0.0	-0.0	-0.0
0.41100000000000003	-0.0	-0.0	-0.0	0.9648696780204772	0.2673912048339844	-611.2568359375	-0.0	-0.0	-0.0	-0.0	-0.0	-0.0	-0.0	-0.0	-0.0	-0.0	-0.0	-0.0
0.41150000000000003	-0.0	-0.0	-0.0	1.070526123046875	0.4619767963886261	-613.0233154296875	-0.0	-0.0	-0.0	-0.0	-0.0	-0.0	-0.0	-0.0	-0.0	-0.0	-0.0	-0.0
0.41200000000000003	-0.0	-0.0	-0.0	1.0624244213104248	1.2154477834701538	-614.3727416992188	-0.0	-0.0	-0.0	-0.0	-0.0	-0.0	-0.0	-0.0	-0.0	-0.0	-0.0	-0.0
0.41250000000000003	-0.0	-0.0	-0.0	1.3381576538085938	1.4991934299468994	-613.7315673828125	-0.0	-0.0	-0.0	-0.0	-0.0	-0.0	-0.0	-0.0	-0.0	-0.0	-0.0	-0.0
0.41300000000000003	-0.0	-0.0	-0.0	0.8602427840232849	2.1152544021606445	-614.7600708007812	-0.0	-0.0	-0.0	-0.0	-0.0	-0.0	-0.0	-0.0	-0.0	-0.0	-0.0	-0.0
0.41350000000000003	-0.0	-0.0	-0.0	0.6979159116744995	2.5429131984710693	-613.1515502929688	-0.0	-0.0	-0.0	-0.0	-0.0	-0.0	-0.0	-0.0	-0.0	-0.0	-0.0	-0.0
0.41400000000000003	-0.0	-0.0	-0.0	0.5430782437324524	2.844364643096924	-611.4163818359375	-0.0	-0.0	-0.0	-0.0	-0.0	-0.0	-0.0	-0.0	-0.0	-0.0	-0.0	-0.0
0.41450000000000004	-0.0	-0.0	-0.0	0.7873704433441162	3.08471941947937	-609.7115478515625	-0.0	-0.0	-0.0	-0.0	-0.0	-0.0	-0.0	-0.0	-0.0	-0.0	-0.0	-0.0
0.41500000000000004	-0.0	-0.0	-0.0	0.4614109694957733	3.855624198913574	-607.20751953125	-0.0	-0.0	-0.0	-0.0	-0.0	-0.0	-0.0	-0.0	-0.0	-0.0	-0.0	-0.0
0.41550000000000004	-0.0	-0.0	-0.0	1.070526123046875	3.944551706314087	-607.8829345703125	-0.0	-0.0	-0.0	-0.0	-0.0	-0.0	-0.0	-0.0	-0.0	-0.0	-0.0	-0.0
0.41600000000000004	-0.0	-0.0	-0.0	0.8104532361030579	4.107550144195557	-606.8529663085938	-0.0	-0.0	-0.0	-0.0	-0.0	-0.0	-0.0	-0.0	-0.0	-0.0	-0.0	-0.0
0.4165	-0.0	-0.0	-0.0	1.122357726097107	4.129874706268311	-606.9979248046875	-0.0	-0.0	-0.0	-0.0	-0.0	-0.0	-0.0	-0.0	-0.0	-0.0	-0.0	-0.0
0.417	-0.0	-0.0	-0.0	0.5352630615234375	4.419300556182861	-604.7615966796875	-0.0	-0.0	-0.0	-0.0	-0.0	-0.0	-0.0	-0.0	-0.0	-0.0	-0.0	-0.0
0.4175	-0.0	-0.0	-0.0	0.1332557648420334	4.858166217803955	-605.0262451171875	-0.0	-0.0	-0.0	-0.0	-0.0	-0.0	-0.0	-0.0	-0.0	-0.0	-0.0	-0.0
0.418	-0.0	-0.0	-0.0	0.2676315307617187	4.894906520843506	-604.2908935546875	-0.0	-0.0	-0.0	-0.0	-0.0	-0.0	-0.0	-0.0	-0.0	-0.0	-0.0	-0.0
0.4185	-0.0	-0.0	-0.0	0.0964295417070388	4.880534648895264	-604.5011596679688	-0.0	-0.0	-0.0	-0.0	-0.0	-0.0	-0.0	-0.0	-0.0	-0.0	-0.0	-0.0
0.419	-0.0	-0.0	-0.0	0.1784210205078125	5.301472187042236	-600.7872924804688	-0.0	-0.0	-0.0	-0.0	-0.0	-0.0	-0.0	-0.0	-0.0	-0.0	-0.0	-0.0
0.4195	-0.0	-0.0	-0.0	0.0537942312657833	5.704345703125	-602.4969482421875	-0.0	-0.0	-0.0	-0.0	-0.0	-0.0	-0.0	-0.0	-0.0	-0.0	-0.0	-0.0
0.42	-0.0	-0.0	-0.0	-0.0070154680870473	5.889615535736084	-600.1360473632812	-0.0	-0.0	-0.0	-0.0	-0.0	-0.0	-0.0	-0.0	-0.0	-0.0	-0.0	-0.0
0.4205	-0.0	-0.0	-0.0	-0.3022945821285248	5.9994425773620605	-600.9476318359375	-0.0	-0.0	-0.0	-0.0	-0.0	-0.0	-0.0	-0.0	-0.0	-0.0	-0.0	-0.0
0.421	-0.0	-0.0	-0.0	-0.8989845514297485	6.671033382415772	-597.9608154296875	-0.0	-0.0	-0.0	-0.0	-0.0	-0.0	-0.0	-0.0	-0.0	-0.0	-0.0	-0.0
0.4215	-0.0	-0.0	-0.0	-1.0637283325195312	7.076098918914795	-596.8472290039062	-0.0	-0.0	-0.0	-0.0	-0.0	-0.0	-0.0	-0.0	-0.0	-0.0	-0.0	-0.0
0.422	-0.0	-0.0	-0.0	-1.1664652824401855	7.308692932128906	-597.1473999023438	-0.0	-0.0	-0.0	-0.0	-0.0	-0.0	-0.0	-0.0	-0.0	-0.0	-0.0	-0.0
0.4225	-0.0	-0.0	-0.0	-1.130608081817627	6.4774169921875	-596.2205810546875	-0.0	-0.0	-0.0	-0.0	-0.0	-0.0	-0.0	-0.0	-0.0	-0.0	-0.0	-0.0
0.423	-0.0	-0.0	-0.0	-1.7015925645828247	6.925823211669922	-594.5062866210938	-0.0	-0.0	-0.0	-0.0	-0.0	-0.0	-0.0	-0.0	-0.0	-0.0	-0.0	-0.0
0.4235	-0.0	-0.0	-0.0	-2.3432862758636475	7.213028430938721	-594.2982788085938	-0.0	-0.0	-0.0	-0.0	-0.0	-0.0	-0.0	-0.0	-0.0	-0.0	-0.0	-0.0
0.424	-0.0	-0.0	-0.0	-1.7014716863632202	7.251893520355225	-594.8775634765625	-0.0	-0.0	-0.0	-0.0	-0.0	-0.0	-0.0	-0.0	-0.0	-0.0	-0.0	-0.0
0.4245	-0.0	-0.0	-0.0	-1.7522644996643066	7.3150763511657715	-595.0322875976562	-0.0	-0.0	-0.0	-0.0	-0.0	-0.0	-0.0	-0.0	-0.0	-0.0	-0.0	-0.0
0.425	-0.0	-0.0	-0.0	-1.2616190910339355	7.582414627075195	-593.4175415039062	-0.0	-0.0	-0.0	-0.0	-0.0	-0.0	-0.0	-0.0	-0.0	-0.0	-0.0	-0.0
0.4255	-0.0	-0.0	-0.0	-1.3569201231002808	8.309523582458496	-595.0586547851562	-0.0	-0.0	-0.0	-0.0	-0.0	-0.0	-0.0	-0.0	-0.0	-0.0	-0.0	-0.0
0.426	-0.0	-0.0	-0.0	-1.6181596517562866	8.282947540283203	-598.0175170898438	-0.0	-0.0	-0.0	-0.0	-0.0	-0.0	-0.0	-0.0	-0.0	-0.0	-0.0	-0.0
0.4265	-0.0	-0.0	-0.0	-1.2952334880828855	8.11086654663086	-596.4480590820312	-0.0	-0.0	-0.0	-0.0	-0.0	-0.0	-0.0	-0.0	-0.0	-0.0	-0.0	-0.0
